<?xml version="1.0" encoding="UTF-8"?>
<svg xmlns="http://www.w3.org/2000/svg" xmlns:xlink="http://www.w3.org/1999/xlink" width="400pt" height="400pt" viewBox="0 0 400 400" version="1.1">
<g id="surface1">
<path style=" stroke:none;fill-rule:nonzero;fill:rgb(33.72549%,23.921569%,48.627451%);fill-opacity:1;" d="M 400 333.332031 C 400 370 370 400 333.332031 400 L 66.667969 400 C 30 400 0 370 0 333.332031 L 0 66.667969 C 0 30 30 0 66.667969 0 L 333.332031 0 C 370 0 400 30 400 66.667969 Z M 400 333.332031 "/>
<path style=" stroke:none;fill-rule:nonzero;fill:rgb(100%,100%,100%);fill-opacity:1;" d="M 108.691406 86.929688 L 222.089844 86.929688 C 243.007812 86.929688 259.804688 91.699219 272.417969 101.308594 C 285.03125 110.914062 291.371094 125.359375 291.371094 144.769531 C 291.371094 156.535156 288.496094 166.601562 282.746094 174.96875 C 276.992188 183.332031 268.757812 189.871094 258.039062 194.445312 L 258.039062 195.097656 C 272.417969 198.171875 283.332031 204.96875 290.71875 215.488281 C 298.105469 226.078125 301.828125 239.28125 301.828125 255.230469 C 301.828125 264.378906 300.195312 272.941406 296.929688 280.851562 C 293.660156 288.824219 288.5625 295.6875 281.570312 301.4375 C 274.574219 307.191406 265.6875 311.765625 254.769531 315.164062 C 243.855469 318.5625 230.914062 320.261719 215.882812 320.261719 L 108.691406 320.261719 Z M 149.542969 184.640625 L 216.210938 184.640625 C 226.011719 184.640625 234.183594 181.894531 240.71875 176.273438 C 247.253906 170.652344 250.523438 162.679688 250.523438 152.222656 C 250.523438 140.457031 247.582031 132.15625 241.699219 127.386719 C 235.816406 122.613281 227.320312 120.195312 216.210938 120.195312 L 149.542969 120.195312 Z M 149.542969 286.929688 L 221.765625 286.929688 C 234.183594 286.929688 243.855469 283.726562 250.652344 277.253906 C 257.515625 270.851562 260.980469 261.699219 260.980469 249.933594 C 260.980469 238.367188 257.582031 229.542969 250.652344 223.269531 C 243.726562 216.992188 234.183594 213.988281 221.765625 213.988281 L 149.542969 213.988281 Z M 149.542969 286.929688 "/>
</g>
</svg>
