<svg id="Layer_1" data-name="Layer 1" xmlns="http://www.w3.org/2000/svg" viewBox="0 0 503.88 491.44"><defs><style>.cls-1,.cls-2{fill:#181616;}.cls-1{fill-rule:evenodd;}</style></defs><title>github_512x512</title><path class="cls-1" d="M256.34,7.37C117.22,7.37,4.4,120.17,4.4,259.31c0,111.31,72.19,205.75,172.29,239.07,12.59,2.33,17.21-5.47,17.21-12.12,0-6-.23-25.85-.34-46.91-70.09,15.24-84.88-29.73-84.88-29.73-11.46-29.12-28-36.86-28-36.86-22.86-15.64,1.72-15.32,1.72-15.32,25.3,1.78,38.62,26,38.62,26,22.47,38.51,58.94,27.38,73.32,20.94,2.26-16.28,8.79-27.4,16-33.69-56-6.37-114.79-28-114.79-124.51,0-27.5,9.84-50,26-67.62-2.62-6.35-11.24-32,2.44-66.68,0,0,21.16-6.77,69.3,25.83a238.9,238.9,0,0,1,126.18,0c48.09-32.6,69.21-25.83,69.21-25.83,13.71,34.7,5.09,60.33,2.47,66.68,16.15,17.64,25.93,40.12,25.93,67.62,0,96.77-58.94,118.07-115,124.31,9,7.82,17.09,23.15,17.09,46.65,0,33.71-.29,60.84-.29,69.14,0,6.71,4.53,14.56,17.3,12.09,100.05-33.35,172.15-127.76,172.15-239C508.28,120.17,395.48,7.37,256.34,7.37Z" transform="translate(-4.4 -7.37)"/><path class="cls-2" d="M99.83,369.1c-.55,1.25-2.53,1.63-4.32.77s-2.85-2.53-2.26-3.78,2.51-1.65,4.34-.79,2.87,2.55,2.24,3.8Zm-3.1-2.3" transform="translate(-4.4 -7.37)"/><path class="cls-2" d="M110,380.49c-1.2,1.11-3.55.59-5.15-1.17s-2-4.11-.74-5.24,3.52-.59,5.17,1.17,2,4.11.72,5.24Zm-2.4-2.58" transform="translate(-4.4 -7.37)"/><path class="cls-2" d="M120,395c-1.54,1.08-4.07.07-5.63-2.17s-1.54-4.93,0-6,4-.11,5.63,2.11,1.54,5,0,6.06Zm0,0" transform="translate(-4.4 -7.37)"/><path class="cls-2" d="M133.57,409c-1.38,1.52-4.32,1.11-6.47-1s-2.82-4.91-1.43-6.44,4.36-1.1,6.53,1,2.85,4.93,1.38,6.44Zm0,0" transform="translate(-4.4 -7.37)"/><path class="cls-2" d="M152.35,417.15c-.61,2-3.44,2.87-6.29,2s-4.71-3.17-4.14-5.17,3.44-2.92,6.31-2,4.71,3.15,4.12,5.16Zm0,0" transform="translate(-4.4 -7.37)"/><path class="cls-2" d="M173,418.66c.07,2.08-2.35,3.8-5.35,3.84s-5.45-1.61-5.48-3.66,2.37-3.8,5.38-3.85,5.45,1.61,5.45,3.68Zm0,0" transform="translate(-4.4 -7.37)"/><path class="cls-2" d="M192.15,415.4c.36,2-1.72,4.11-4.7,4.66s-5.63-.72-6-2.73,1.76-4.16,4.68-4.7,5.65.7,6,2.76Zm0,0" transform="translate(-4.4 -7.37)"/></svg>