<?xml version="1.0" encoding="UTF-8"?>
<svg xmlns="http://www.w3.org/2000/svg" xmlns:xlink="http://www.w3.org/1999/xlink" width="377pt" height="512pt" viewBox="0 0 377 512" version="1.1">
<g id="surface1">
<path style=" stroke:none;fill-rule:nonzero;fill:rgb(96.470588%,82.352941%,63.529412%);fill-opacity:1;" d="M 5.429688 276.828125 C 6.160156 291.921875 21.269531 284.890625 28.019531 280.199219 C 34.472656 275.65625 36.378906 279.464844 36.964844 270.671875 C 37.40625 264.8125 37.992188 259.097656 37.699219 253.234375 C 27.871094 252.355469 17.308594 254.699219 9.242188 260.5625 C 4.988281 263.492188 -2.640625 273.164062 5.425781 276.828125 M 306.585938 462.355469 C 318.175781 469.539062 339.445312 491.226562 321.992188 501.777344 C 305.265625 517.019531 295.878906 484.925781 281.210938 480.527344 C 287.515625 471.882812 295.4375 463.96875 306.585938 462.355469 Z M 99.164062 486.832031 C 85.523438 488.882812 77.894531 501.191406 66.453125 507.496094 C 55.742188 513.796875 51.636719 505.441406 50.753906 503.683594 C 49.140625 502.953125 49.289062 504.417969 46.648438 501.777344 C 36.671875 486.097656 56.917969 474.667969 67.480469 466.898438 C 82.148438 463.96875 91.390625 476.71875 99.164062 486.832031 Z M 370.984375 274.921875 C 370.253906 290.019531 355.144531 282.984375 348.394531 278.292969 C 341.941406 273.75 340.035156 277.5625 339.445312 268.769531 C 339.003906 262.90625 338.417969 257.191406 338.714844 251.328125 C 348.539062 250.449219 359.101562 252.792969 367.171875 258.65625 C 371.28125 261.585938 379.054688 271.261719 370.984375 274.921875 "/>
<path style=" stroke:none;fill-rule:nonzero;fill:rgb(41.176471%,84.313725%,88.627451%);fill-opacity:1;" d="M 330.9375 90.859375 C 383.308594 72.394531 342.378906 0.734375 296.757812 32.386719 C 266.832031 6.742188 225.613281 2.050781 182.339844 2.050781 C 139.945312 5.425781 99.605469 13.191406 71.441406 37.808594 C 25.964844 8.5 -15.988281 78.839844 37.40625 96.574219 C 22.441406 154.605469 39.457031 213.8125 37.109375 272.871094 C 34.910156 325.921875 20.976562 396.996094 50.460938 444.625 C 75.546875 485.363281 129.527344 499.875 173.976562 501.488281 C 230.746094 503.539062 299.542969 489.617188 327.121094 434.660156 C 353.527344 382.34375 346.195312 317.128906 342.820312 260.707031 C 339.445312 203.699219 345.753906 145.816406 330.9375 90.859375 Z M 330.9375 90.859375 "/>
<path style=" stroke:none;fill-rule:nonzero;fill:rgb(0%,0%,0%);fill-opacity:1;" d="M 374.945312 265.984375 C 373.480469 262.90625 370.691406 259.390625 368.050781 257.484375 C 361.304688 252.648438 352.648438 250.011719 343.699219 249.71875 C 343.40625 240.632812 343.113281 230.664062 343.113281 218.0625 L 343.113281 206.632812 C 342.96875 170.582031 342.527344 154.753906 340.472656 134.96875 C 338.859375 119.4375 336.363281 105.074219 332.84375 91.59375 C 344.726562 87.050781 352.503906 79.574219 355.582031 69.902344 C 358.515625 60.964844 357.050781 50.851562 352.0625 41.914062 C 346.929688 33.121094 338.714844 26.523438 329.179688 23.886719 C 318.910156 21.101562 307.761719 23.15625 297.050781 30.335938 C 287.515625 22.277344 276.515625 16.121094 264.191406 11.429688 C 242.335938 3.371094 216.960938 0.292969 182.484375 0.292969 L 182.484375 1.757812 L 182.339844 0.292969 C 145.519531 3.226562 118.234375 8.941406 95.644531 19.933594 C 86.546875 24.328125 78.480469 29.601562 71.441406 35.757812 C 60.582031 29.019531 49.289062 27.40625 38.875 30.628906 C 29.191406 33.5625 20.832031 40.449219 15.84375 49.386719 C 10.855469 58.328125 9.679688 68.585938 13.054688 77.378906 C 16.429688 86.171875 24.203125 93.058594 35.792969 97.308594 C 32.125 112.109375 30.21875 127.792969 29.925781 145.082031 C 29.632812 161.9375 30.363281 175.421875 33.003906 205.898438 C 34.914062 228.617188 35.644531 239.019531 35.941406 251.625 C 25.964844 251.183594 15.988281 253.820312 8.507812 259.246094 C 5.867188 261.148438 2.933594 264.519531 1.613281 267.742188 C -0.292969 271.847656 0.441406 275.511719 4.253906 277.710938 C 4.839844 284.742188 8.800781 287.96875 14.816406 287.382812 C 19.214844 286.941406 24.496094 284.597656 29.046875 281.371094 C 30.007812 280.679688 31.039062 280.089844 32.125 279.613281 C 32.566406 279.46875 32.859375 279.320312 33.300781 279.171875 C 33.300781 279.171875 34.179688 278.882812 34.472656 278.734375 C 34.914062 278.589844 35.351562 278.441406 35.644531 278.148438 C 35.351562 285.035156 34.765625 292.21875 33.445312 308.632812 C 31.980469 327.09375 31.246094 337.207031 30.953125 348.492188 C 29.632812 390.402344 34.621094 420.886719 49.582031 445.066406 C 54.277344 452.6875 59.996094 459.429688 66.746094 465.582031 C 65.425781 466.460938 59.851562 470.566406 58.089844 471.882812 C 51.929688 476.574219 47.675781 480.53125 45.179688 484.925781 C 41.953125 490.640625 41.953125 496.359375 45.621094 502.367188 L 45.769531 502.511719 L 45.914062 502.660156 C 47.527344 504.269531 48.410156 504.710938 49.582031 504.710938 L 50.019531 504.710938 C 50.167969 505.003906 50.316406 505.152344 50.460938 505.445312 C 50.902344 506.175781 51.339844 506.761719 51.78125 507.347656 C 55.449219 511.597656 60.582031 512.625 67.476562 508.523438 C 71.144531 506.617188 73.785156 504.417969 79.359375 499.726562 L 79.652344 499.433594 C 88.601562 491.816406 93 489.03125 99.601562 488.003906 L 101.949219 487.566406 C 102.828125 488.007812 103.710938 488.296875 104.738281 488.738281 C 125.566406 497.089844 149.769531 501.632812 174.269531 502.511719 C 205.957031 503.6875 236.46875 499.726562 262.285156 490.347656 C 269.179688 487.859375 275.632812 484.925781 281.796875 481.703125 C 285.609375 483.167969 288.835938 486.246094 295 493.425781 C 295.292969 493.722656 295.292969 493.722656 295.4375 494.011719 C 295.730469 494.308594 295.730469 494.453125 295.878906 494.601562 C 296.171875 495.039062 296.609375 495.332031 296.902344 495.773438 C 301.746094 501.488281 304.972656 504.269531 308.640625 505.882812 C 313.480469 507.933594 318.175781 506.910156 323.015625 502.511719 C 331.523438 497.238281 332.109375 489.03125 326.535156 479.652344 C 322.574219 473.058594 315.679688 466.167969 309.226562 461.773438 C 316.855469 454.300781 323.457031 445.359375 328.589844 435.246094 C 342.671875 407.109375 348.101562 374.285156 347.808594 332.078125 C 347.660156 317.128906 347.074219 304.089844 345.460938 279.171875 L 345.460938 278.441406 C 346.195312 278.734375 346.925781 279.175781 347.660156 279.761719 C 352.207031 282.839844 357.488281 285.328125 361.890625 285.769531 C 367.902344 286.355469 371.863281 283.132812 372.449219 276.097656 C 376.117188 273.753906 376.851562 270.089844 374.945312 265.984375 Z M 328.300781 26.964844 C 337.101562 29.308594 344.730469 35.464844 349.421875 43.671875 C 354.117188 51.878906 355.4375 61.109375 352.796875 69.316406 C 350.011719 77.964844 342.96875 84.851562 331.964844 88.953125 C 329.773438 81.109375 327.175781 73.378906 324.191406 65.800781 C 328.445312 62.136719 330.5 57.59375 327.125 51.144531 C 323.753906 44.695312 317.882812 43.964844 311.867188 45.867188 C 308.054688 40.886719 303.800781 36.488281 299.402344 32.386719 C 309.082031 26.230469 319.058594 24.472656 328.300781 26.964844 Z M 15.550781 76.496094 C 12.46875 68.582031 13.496094 59.207031 18.191406 51 C 22.886719 42.792969 30.511719 36.34375 39.609375 33.707031 C 48.996094 30.921875 59.117188 32.238281 69.09375 38.101562 C 63.324219 43.28125 58.203125 49.136719 53.835938 55.542969 C 46.210938 51.585938 38.433594 50.851562 34.035156 58.910156 C 29.488281 67.558594 34.769531 72.980469 42.25 77.082031 C 41.222656 79.574219 40.195312 82.214844 39.316406 84.851562 C 38.289062 88.074219 37.261719 91.445312 36.382812 94.816406 C 25.671875 90.710938 18.632812 84.410156 15.550781 76.496094 Z M 33.300781 276.242188 C 33.152344 276.242188 32.273438 276.535156 32.273438 276.679688 C 31.835938 276.828125 31.394531 276.976562 30.953125 277.269531 C 29.78125 277.707031 28.605469 278.441406 27.433594 279.320312 C 23.324219 282.25 18.335938 284.449219 14.523438 284.742188 C 10.121094 285.183594 7.628906 283.277344 7.191406 278 C 10.269531 276.976562 11.589844 276.242188 12.761719 274.484375 L 10.417969 272.726562 C 9.535156 273.898438 8.65625 274.335938 6.015625 275.214844 C 5.867188 275.214844 5.867188 275.214844 5.722656 275.363281 C 3.375 274.042969 2.933594 271.992188 4.257812 269.0625 C 5.429688 266.425781 8.070312 263.347656 10.269531 261.734375 C 17.3125 256.605469 26.699219 254.113281 36.085938 254.699219 C 36.085938 258.363281 36.234375 262.027344 36.085938 265.542969 C 36.085938 265.984375 36.085938 266.277344 35.941406 266.714844 C 35.792969 268.769531 35.792969 269.648438 35.648438 270.675781 C 35.207031 274.921875 34.914062 275.507812 33.300781 276.242188 Z M 77.601562 497.382812 L 77.308594 497.675781 C 71.878906 502.363281 69.238281 504.269531 65.867188 506.175781 C 60.292969 509.546875 56.476562 508.8125 53.835938 505.589844 C 53.398438 505.148438 53.105469 504.5625 52.8125 504.121094 C 52.664062 503.976562 52.515625 503.683594 52.371094 503.539062 L 52.371094 503.390625 C 52.664062 500.753906 53.691406 498.847656 56.332031 494.742188 C 56.480469 494.597656 56.480469 494.597656 56.480469 494.453125 C 58.09375 492.105469 58.824219 490.789062 59.558594 489.175781 L 56.917969 488.003906 C 56.332031 489.324219 55.597656 490.496094 54.128906 492.839844 C 53.984375 492.984375 53.984375 492.984375 53.984375 493.132812 C 51.34375 496.945312 50.167969 499.285156 49.582031 501.925781 L 48.996094 501.925781 C 48.699219 501.777344 48.261719 501.484375 47.675781 500.898438 C 41.953125 491.8125 46.503906 484.046875 59.410156 474.375 C 61.023438 473.203125 66.453125 469.390625 67.917969 468.21875 C 68.214844 468.21875 68.503906 468.074219 68.800781 467.925781 C 76.71875 474.667969 85.960938 480.527344 96.230469 485.363281 C 96.230469 485.511719 96.378906 485.660156 96.523438 485.804688 C 90.507812 487.269531 85.816406 490.347656 77.601562 497.382812 Z M 323.898438 481.410156 C 328.445312 489.03125 328.300781 495.183594 322.578125 499.433594 C 322.140625 498.554688 321.84375 497.527344 321.257812 496.0625 C 321.257812 495.917969 321.257812 495.917969 321.109375 495.769531 C 319.058594 490.199219 317.738281 487.855469 315.246094 485.21875 L 313.191406 487.269531 C 315.390625 489.324219 316.417969 491.519531 318.472656 496.648438 C 318.472656 496.796875 318.472656 496.796875 318.617188 496.945312 C 319.351562 498.847656 319.792969 500.019531 320.230469 501.046875 C 316.417969 504.269531 313.042969 504.855469 309.523438 503.246094 C 306.441406 501.925781 303.507812 499.140625 298.8125 493.867188 C 298.519531 493.570312 298.226562 493.132812 297.933594 492.691406 C 297.789062 492.546875 297.640625 492.398438 297.492188 492.105469 C 297.203125 491.8125 297.203125 491.8125 297.054688 491.519531 C 291.625 485.21875 288.398438 481.847656 284.878906 479.941406 C 293.09375 475.253906 300.429688 469.976562 307.03125 463.824219 C 313.191406 468.367188 320.085938 475.105469 323.898438 481.410156 Z M 325.953125 433.925781 C 313.335938 459.28125 291.039062 477.160156 261.113281 488.003906 C 235.589844 497.234375 205.371094 501.046875 174.125 499.875 C 120.289062 497.96875 73.640625 479.210938 51.785156 443.746094 C 37.117188 420.152344 32.273438 390.109375 33.59375 348.785156 C 34.035156 337.5 34.621094 327.386719 36.085938 308.921875 C 37.703125 288.113281 38.140625 282.105469 38.582031 272.726562 C 38.875 265.984375 38.875 259.097656 38.730469 251.769531 C 38.433594 238.871094 37.703125 228.613281 35.792969 205.605469 C 33.152344 175.125 32.421875 161.789062 32.714844 145.082031 C 33.15625 123.101562 36.085938 103.753906 42.25 85.4375 C 52.21875 55.6875 70.558594 35.609375 96.964844 22.566406 C 119.113281 11.726562 145.960938 6.15625 182.484375 3.222656 C 216.667969 3.222656 241.601562 6.300781 263.167969 14.214844 C 288.984375 23.742188 308.199219 40.445312 321.402344 66.09375 C 329.910156 86.902344 334.898438 109.324219 337.539062 135.117188 C 339.59375 154.753906 340.035156 170.582031 340.179688 206.484375 L 340.179688 217.914062 C 340.328125 235.648438 340.621094 248.105469 341.355469 260.5625 C 341.648438 265.398438 341.792969 267.449219 342.527344 279.027344 C 344.140625 303.941406 344.726562 316.835938 344.875 331.785156 C 345.167969 373.84375 339.886719 406.230469 325.949219 433.925781 Z M 370.839844 273.457031 C 370.691406 273.457031 370.546875 273.3125 370.402344 273.3125 C 367.761719 272.433594 366.878906 271.84375 366 270.820312 L 363.652344 272.578125 C 364.972656 274.335938 366.292969 275.070312 369.226562 276.09375 C 368.640625 281.371094 366.148438 283.277344 361.894531 282.835938 C 358.078125 282.542969 353.089844 280.199219 348.984375 277.414062 C 347.808594 276.535156 346.636719 275.949219 345.464844 275.363281 C 345.316406 275.363281 345.167969 275.214844 345.019531 275.214844 C 344.433594 267.15625 344.433594 265.105469 344.140625 260.855469 L 343.703125 252.941406 C 351.917969 253.085938 359.984375 255.578125 366.144531 260.121094 C 368.347656 261.734375 370.988281 264.8125 372.160156 267.449219 C 373.628906 269.941406 373.335938 272.136719 370.839844 273.457031 Z M 370.839844 273.457031 "/>
<path style=" stroke:none;fill-rule:nonzero;fill:rgb(100%,100%,100%);fill-opacity:1;" d="M 204.578125 153.1875 C 204.726562 160.660156 206.191406 168.867188 204.871094 176.78125 C 202.816406 180.589844 199.003906 181.03125 195.628906 182.496094 C 190.9375 181.761719 186.972656 178.683594 185.070312 174.289062 C 183.894531 165.351562 185.363281 156.847656 185.800781 147.910156 C 185.800781 147.617188 191.375 148.058594 196.363281 149.523438 C 200.617188 150.839844 204.578125 153.039062 204.578125 153.1875 Z M 163.0625 153.769531 C 158.957031 169.308594 168.492188 194.660156 184.1875 173.847656 C 183.015625 165.054688 184.335938 156.554688 184.773438 147.910156 C 184.921875 147.175781 163.210938 152.746094 163.0625 153.769531 Z M 163.0625 153.769531 "/>
<path style=" stroke:none;fill-rule:nonzero;fill:rgb(0%,0%,0%);fill-opacity:1;" d="M 206.339844 160.074219 C 206.042969 155.675781 205.898438 153.917969 205.898438 151.71875 L 205.898438 150.695312 L 204.871094 150.402344 L 186.386719 144.6875 L 186.386719 143.660156 L 184.480469 144.101562 L 184.332031 144.101562 L 184.332031 144.246094 L 163.503906 149.523438 L 162.769531 149.667969 L 162.476562 150.402344 C 159.25 158.167969 159.984375 169.894531 164.089844 177.074219 C 168.785156 185.28125 176.414062 185.425781 184.1875 176.046875 C 186.386719 180.285156 190.46875 183.222656 195.1875 183.960938 L 195.628906 183.960938 L 196.070312 183.816406 C 196.65625 183.519531 197.242188 183.375 198.269531 182.933594 C 198.417969 182.933594 198.417969 182.933594 198.5625 182.789062 C 202.816406 181.324219 204.578125 180.148438 206.046875 177.367188 L 206.191406 177.21875 L 206.191406 176.925781 C 206.632812 174.289062 206.777344 171.503906 206.777344 168.425781 C 206.777344 166.226562 206.632812 164.175781 206.339844 160.074219 Z M 182.867188 154.652344 C 182.71875 157.289062 182.574219 158.3125 182.429688 159.78125 C 182.132812 165.203125 182.132812 169.304688 182.574219 173.410156 C 175.679688 182.203125 170.253906 182.203125 166.585938 175.605469 C 163.0625 169.453125 162.328125 159.046875 164.972656 152.160156 L 183.453125 147.46875 C 183.308594 149.375 183.160156 151.28125 182.867188 154.652344 Z M 203.40625 176.339844 C 202.378906 178.097656 201.058594 178.980469 197.535156 180.152344 C 197.390625 180.152344 197.390625 180.152344 197.242188 180.296875 C 196.363281 180.589844 195.777344 180.882812 195.335938 181.03125 C 191.375 180.296875 188.003906 177.660156 186.386719 173.996094 C 185.949219 170.039062 185.949219 165.933594 186.242188 160.515625 C 186.386719 159.046875 186.386719 158.023438 186.683594 155.382812 C 186.972656 152.015625 187.121094 149.960938 187.121094 148.058594 L 203.113281 152.894531 C 203.113281 154.796875 203.257812 156.554688 203.550781 160.367188 C 203.84375 164.324219 203.992188 166.375 203.992188 168.71875 C 203.992188 171.503906 203.84375 173.996094 203.40625 176.339844 Z M 203.40625 176.339844 "/>
<path style=" stroke:none;fill-rule:nonzero;fill:rgb(100%,100%,100%);fill-opacity:1;" d="M 74.761719 89.339844 C 88.257812 141.800781 172.3125 128.320312 169.085938 75.710938 C 165.269531 12.695312 61.851562 24.855469 74.761719 89.339844 "/>
<path style=" stroke:none;fill-rule:nonzero;fill:rgb(0%,0%,0%);fill-opacity:1;" d="M 170.554688 75.5625 C 169.671875 60.320312 162.925781 48.449219 151.777344 40.976562 C 141.800781 34.234375 128.597656 31.597656 115.542969 33.210938 C 102.488281 34.96875 90.457031 40.832031 82.535156 50.066406 C 73.734375 60.320312 70.363281 73.804688 73.441406 89.339844 L 74.761719 89.042969 L 73.441406 89.339844 C 87.230469 143.265625 173.78125 130.226562 170.554688 75.5625 Z M 76.082031 89.046875 C 73.148438 74.246094 76.375 61.640625 84.589844 52.117188 C 92.070312 43.46875 103.367188 37.753906 115.835938 36.144531 C 128.304688 34.53125 140.773438 37.023438 150.164062 43.46875 C 160.578125 50.503906 166.886719 61.496094 167.765625 76.003906 C 170.847656 127.148438 89.136719 139.460938 76.082031 89.046875 Z M 76.082031 89.046875 "/>
<path style=" stroke:none;fill-rule:nonzero;fill:rgb(0%,0%,0%);fill-opacity:1;" d="M 112.167969 80.691406 C 112.167969 72.195312 105.800781 65.304688 97.941406 65.304688 C 90.082031 65.304688 83.710938 72.195312 83.710938 80.691406 C 83.710938 89.191406 90.082031 96.078125 97.941406 96.078125 C 105.800781 96.078125 112.167969 89.191406 112.167969 80.691406 Z M 112.167969 80.691406 "/>
<path style=" stroke:none;fill-rule:nonzero;fill:rgb(100%,100%,100%);fill-opacity:1;" d="M 107.765625 84.207031 C 107.765625 82.023438 106.257812 80.253906 104.394531 80.253906 C 102.53125 80.253906 101.019531 82.023438 101.019531 84.207031 C 101.019531 86.394531 102.53125 88.164062 104.394531 88.164062 C 106.257812 88.164062 107.765625 86.394531 107.765625 84.207031 Z M 107.765625 84.207031 "/>
<path style=" stroke:none;fill-rule:nonzero;fill:rgb(100%,100%,100%);fill-opacity:1;" d="M 192.644531 79.53125 C 203.058594 139.761719 301.636719 123.785156 287.40625 63.117188 C 274.644531 8.601562 189.121094 23.695312 192.644531 79.53125 "/>
<path style=" stroke:none;fill-rule:nonzero;fill:rgb(0%,0%,0%);fill-opacity:1;" d="M 288.726562 62.824219 C 275.671875 6.695312 187.65625 22.082031 191.175781 79.675781 L 191.175781 79.824219 C 196.015625 108.253906 221.394531 122.761719 249.414062 118.070312 C 262.175781 115.875 273.617188 109.71875 281.097656 100.632812 C 289.3125 90.519531 292.246094 77.476562 288.726562 62.824219 Z M 278.898438 98.875 C 271.855469 107.375 261.148438 113.234375 248.972656 115.289062 C 222.421875 119.683594 198.65625 106.054688 193.964844 79.382812 C 190.734375 25.160156 273.765625 10.652344 286.085938 63.410156 C 289.3125 77.332031 286.671875 89.496094 278.898438 98.875 Z M 278.898438 98.875 "/>
<path style=" stroke:none;fill-rule:nonzero;fill:rgb(0%,0%,0%);fill-opacity:1;" d="M 230.78125 76.890625 C 230.78125 68.394531 224.542969 61.503906 216.847656 61.503906 C 209.152344 61.503906 202.910156 68.394531 202.910156 76.890625 C 202.910156 85.390625 209.152344 92.28125 216.847656 92.28125 C 224.542969 92.28125 230.78125 85.390625 230.78125 76.890625 Z M 230.78125 76.890625 "/>
<path style=" stroke:none;fill-rule:nonzero;fill:rgb(100%,100%,100%);fill-opacity:1;" d="M 226.527344 80.410156 C 226.527344 78.222656 225.082031 76.453125 223.300781 76.453125 C 221.519531 76.453125 220.074219 78.222656 220.074219 80.410156 C 220.074219 82.59375 221.519531 84.363281 223.300781 84.363281 C 225.082031 84.363281 226.527344 82.59375 226.527344 80.410156 Z M 226.527344 80.410156 "/>
<path style=" stroke:none;fill-rule:nonzero;fill:rgb(96.470588%,82.352941%,63.529412%);fill-opacity:1;" d="M 166.09375 122.113281 C 154.503906 123.136719 145.117188 136.765625 151.132812 147.613281 C 159.050781 161.972656 176.800781 146.292969 187.804688 147.757812 C 200.566406 148.054688 210.980469 161.242188 221.101562 150.105469 C 232.398438 137.792969 216.261719 125.777344 203.5 120.5 Z M 166.09375 122.113281 "/>
<path style=" stroke:none;fill-rule:nonzero;fill:rgb(13.72549%,12.156863%,12.54902%);fill-opacity:1;" d="M 222.570312 131.929688 C 218.609375 126.949219 211.714844 122.40625 204.230469 119.328125 L 203.9375 119.179688 L 203.644531 119.179688 L 166.09375 120.648438 C 153.035156 121.820312 143.648438 136.914062 149.957031 148.34375 C 152.449219 152.742188 155.824219 154.9375 160.371094 155.230469 C 163.746094 155.378906 167.265625 154.648438 172.695312 152.742188 C 173.132812 152.59375 173.71875 152.445312 174.453125 152.15625 C 181.789062 149.664062 184.722656 148.929688 187.65625 149.371094 L 187.804688 149.371094 C 191.324219 149.371094 194.257812 150.394531 199.832031 152.59375 C 205.992188 155.085938 207.902344 155.820312 210.980469 156.109375 C 215.234375 156.40625 218.902344 154.9375 222.273438 151.277344 C 227.996094 144.972656 227.703125 138.234375 222.570312 131.929688 Z M 220.074219 149.222656 C 217.289062 152.300781 214.5 153.328125 211.128906 153.179688 C 208.488281 153.035156 206.726562 152.300781 200.859375 149.957031 C 194.992188 147.464844 191.765625 146.585938 187.949219 146.441406 C 184.285156 146 181.203125 146.734375 173.425781 149.371094 C 172.695312 149.664062 172.109375 149.8125 171.667969 149.957031 C 160.957031 153.621094 155.824219 153.328125 152.304688 146.878906 C 147.023438 137.355469 155.089844 124.457031 166.09375 123.433594 L 203.207031 121.964844 C 210.25 124.898438 216.554688 129.144531 220.222656 133.691406 C 224.621094 138.964844 224.769531 144.242188 220.074219 149.222656 Z M 220.074219 149.222656 "/>
<path style=" stroke:none;fill-rule:nonzero;fill:rgb(0%,0%,0%);fill-opacity:1;" d="M 206.433594 115.8125 C 201.886719 99.105469 163.746094 101.597656 164.625 121.527344 C 166.53125 136.328125 210.835938 132.371094 206.433594 115.8125 Z M 206.433594 115.8125 "/>
</g>
</svg>
