<?xml version="1.0" encoding="UTF-8"?>
<svg xmlns="http://www.w3.org/2000/svg" xmlns:xlink="http://www.w3.org/1999/xlink" width="379pt" height="512pt" viewBox="0 0 379 512" version="1.1">
<g id="surface1">
<path style=" stroke:none;fill-rule:nonzero;fill:rgb(32.54902%,50.980392%,63.137255%);fill-opacity:1;" d="M 122.199219 395.796875 C 122.199219 395.796875 102.664062 407.15625 136.101562 411 C 176.617188 415.617188 197.320312 414.957031 241.964844 406.507812 C 241.964844 406.507812 253.703125 413.867188 270.09375 420.238281 C 170.015625 463.117188 43.589844 417.753906 122.199219 395.796875 M 109.96875 339.84375 C 109.96875 339.84375 88.058594 356.058594 121.523438 359.515625 C 164.800781 363.980469 198.976562 364.347656 258.113281 352.960938 C 258.113281 352.960938 266.292969 361.25 279.15625 365.785156 C 158.148438 401.15625 23.371094 368.574219 109.96875 339.84375 "/>
<path style=" stroke:none;fill-rule:nonzero;fill:rgb(90.588235%,43.529412%,0%);fill-opacity:1;" d="M 213.066406 244.925781 C 237.730469 273.304688 206.589844 298.847656 206.589844 298.847656 C 206.589844 298.847656 269.203125 266.53125 240.449219 226.066406 C 213.589844 188.332031 192.992188 169.582031 304.496094 104.9375 C 304.496094 104.9375 129.476562 148.632812 213.066406 244.921875 "/>
<path style=" stroke:none;fill-rule:nonzero;fill:rgb(32.54902%,50.980392%,63.137255%);fill-opacity:1;" d="M 345.433594 437.1875 C 345.433594 437.1875 359.890625 449.09375 329.511719 458.304688 C 271.742188 475.800781 89.074219 481.085938 38.328125 459.003906 C 20.085938 451.070312 54.296875 440.0625 65.054688 437.75 C 76.277344 435.320312 82.691406 435.773438 82.691406 435.773438 C 62.402344 421.484375 -48.433594 463.824219 26.390625 475.949219 C 230.445312 509.03125 398.363281 461.054688 345.433594 437.1875 M 131.59375 281.867188 C 131.59375 281.867188 38.675781 303.929688 98.691406 311.941406 C 124.027344 315.332031 174.542969 314.566406 221.59375 310.621094 C 260.046875 307.382812 298.660156 300.484375 298.660156 300.484375 C 298.660156 300.484375 285.101562 306.292969 275.292969 312.988281 C 180.933594 337.796875 -1.34375 326.253906 51.132812 300.878906 C 95.511719 279.433594 131.59375 281.867188 131.59375 281.867188 M 298.277344 375.007812 C 394.195312 325.179688 349.847656 277.296875 318.890625 283.75 C 311.304688 285.324219 307.921875 286.695312 307.921875 286.695312 C 307.921875 286.695312 310.738281 282.285156 316.117188 280.375 C 377.355469 258.851562 424.453125 343.851562 296.347656 377.515625 C 296.347656 377.519531 297.835938 376.191406 298.277344 375.007812 "/>
<path style=" stroke:none;fill-rule:nonzero;fill:rgb(90.588235%,43.529412%,0%);fill-opacity:1;" d="M 240.449219 0.550781 C 240.449219 0.550781 293.570312 53.671875 190.066406 135.355469 C 107.066406 200.882812 171.140625 238.246094 190.03125 280.933594 C 141.582031 237.234375 106.027344 198.765625 129.882812 162.964844 C 164.890625 110.410156 261.878906 84.929688 240.449219 0.546875 "/>
<path style=" stroke:none;fill-rule:nonzero;fill:rgb(32.54902%,50.980392%,63.137255%);fill-opacity:1;" d="M 141.019531 510.023438 C 233.089844 515.917969 374.46875 506.753906 377.820312 463.203125 C 377.820312 463.203125 371.382812 479.714844 301.730469 492.828125 C 223.144531 507.609375 126.226562 505.882812 68.742188 496.410156 C 68.742188 496.410156 80.507812 506.144531 141.019531 510.023438 "/>
</g>
</svg>
